<svg data-v-423bf9ae="" xmlns="http://www.w3.org/2000/svg" viewBox="0 0 346.4977302666505 163" class="iconAbove"><!----><!----><defs data-v-423bf9ae=""><linearGradient data-v-423bf9ae="" gradientTransform="rotate(25)" id="61c4d3c4-ebf7-4fc9-88fd-8e8d6dd75b27" x1="0%" y1="0%" x2="100%" y2="0%"><stop data-v-423bf9ae="" offset="0%" style="stop-color: rgb(255, 207, 52); stop-opacity: 1;"></stop><stop data-v-423bf9ae="" offset="100%" style="stop-color: rgb(0, 143, 209); stop-opacity: 1;"></stop></linearGradient></defs><g data-v-423bf9ae="" id="442415d6-6930-4793-819c-1b5848dc0795" fill="url(#61c4d3c4-ebf7-4fc9-88fd-8e8d6dd75b27)" transform="matrix(4.480188087323368,0,0,4.480188087323368,-0.7168280273508572,71.41467360667934)"><path d="M0.16 14.94L0.16 14.94L1.48 14.51L1.48 14.51Q1.48 14.51 1.50 14.62L1.50 14.62L1.50 14.62Q1.52 14.72 1.58 14.89L1.58 14.89L1.58 14.89Q1.63 15.05 1.72 15.25L1.72 15.25L1.72 15.25Q1.81 15.46 1.99 15.66L1.99 15.66L1.99 15.66Q2.17 15.86 2.41 16.02L2.41 16.02L2.41 16.02Q2.94 16.40 3.73 16.40L3.73 16.40L3.73 16.40Q4.53 16.40 4.90 16.01L4.90 16.01L4.90 16.01Q5.27 15.62 5.27 15.08L5.27 15.08L5.27 15.08Q5.27 14.55 5.16 14.22L5.16 14.22L5.16 14.22Q5.05 13.88 4.78 13.64L4.78 13.64L4.78 13.64Q4.32 13.23 3.19 12.90L3.19 12.90L3.19 12.90Q1.20 12.32 0.64 11.10L0.64 11.10L0.64 11.10Q0.34 10.47 0.34 9.60L0.34 9.60L0.34 9.60Q0.34 8.88 0.85 8.19L0.85 8.19L0.85 8.19Q1.75 7.05 3.40 7.05L3.40 7.05L3.40 7.05Q4.70 7.05 5.54 7.83L5.54 7.83L5.54 7.83Q6.13 8.39 6.43 9.23L6.43 9.23L6.56 9.59L6.56 9.59Q6.62 9.75 6.64 9.80L6.64 9.80L5.30 10.27L5.30 10.27Q4.85 8.84 3.90 8.50L3.90 8.50L3.90 8.50Q3.66 8.42 3.40 8.42L3.40 8.42L3.40 8.42Q1.98 8.42 1.98 9.88L1.98 9.88L1.98 9.88Q1.98 10.55 2.37 10.91L2.37 10.91L2.37 10.91Q2.70 11.22 3.23 11.40L3.23 11.40L3.56 11.50L3.56 11.50Q3.84 11.60 3.87 11.61L3.87 11.61L4.17 11.71L4.17 11.71Q5.34 12.12 5.75 12.43L5.75 12.43L5.75 12.43Q6.35 12.90 6.54 13.29L6.54 13.29L6.54 13.29Q6.90 14.09 6.90 14.98L6.90 14.98L6.90 14.98Q6.90 15.67 6.51 16.39L6.51 16.39L6.51 16.39Q5.97 17.36 4.82 17.66L4.82 17.66L4.82 17.66Q4.38 17.77 3.85 17.77L3.85 17.77L3.85 17.77Q3.32 17.77 2.86 17.68L2.86 17.68L2.86 17.68Q2.40 17.58 2.06 17.42L2.06 17.42L2.06 17.42Q1.73 17.25 1.45 17.04L1.45 17.04L1.45 17.04Q1.17 16.83 0.98 16.59L0.98 16.59L0.98 16.59Q0.79 16.36 0.64 16.12L0.64 16.12L0.64 16.12Q0.50 15.89 0.41 15.67L0.41 15.67L0.41 15.67Q0.33 15.46 0.27 15.30L0.27 15.30L0.27 15.30Q0.22 15.13 0.19 15.04L0.19 15.04L0.19 15.04Q0.17 14.94 0.16 14.94ZM7.92 15.79L7.92 15.79L7.92 10.38L9.39 10.38L9.39 15.41L9.39 15.41Q9.39 15.90 9.68 16.19L9.68 16.19L9.68 16.19Q9.98 16.48 10.39 16.48L10.39 16.48L10.39 16.48Q10.79 16.48 11.20 16.24L11.20 16.24L11.20 16.24Q11.61 16.00 11.81 15.76L11.81 15.76L11.81 10.38L13.27 10.38L13.27 17.60L11.81 17.60L11.81 16.83L11.81 16.83Q10.92 17.72 9.96 17.72L9.96 17.72L9.96 17.72Q9.10 17.72 8.53 17.27L8.53 17.27L8.53 17.27Q7.92 16.78 7.92 15.79ZM16.15 17.60L14.69 17.60L14.69 10.38L16.15 10.38L16.15 11.38L16.15 11.38Q16.18 11.34 16.28 11.20L16.28 11.20L16.44 10.95L16.44 10.95Q16.95 10.26 18.11 10.26L18.11 10.26L18.11 10.26Q18.23 10.26 18.35 10.28L18.35 10.28L18.35 11.50L18.35 11.50Q17.11 11.53 16.56 12.20L16.56 12.20L16.56 12.20Q16.32 12.50 16.15 12.97L16.15 12.97L16.15 17.60ZM21.85 7.14L21.85 7.14L21.85 7.14Q22.36 7.14 22.39 7.24L22.39 7.24L22.39 8.46L21.93 8.46L21.93 8.46Q21.38 8.47 21.21 8.59L21.21 8.59L21.21 8.59Q20.90 8.82 20.90 9.15L20.90 9.15L20.90 10.38L22.39 10.38L22.39 11.62L20.90 11.62L20.90 17.60L19.44 17.60L19.44 11.62L18.40 11.62L18.40 10.38L19.44 10.38L19.44 8.84L19.44 8.84Q19.44 7.14 21.85 7.14ZM25.24 8.61L22.44 8.61L22.44 7.24L29.67 7.24L29.67 8.61L26.87 8.61L26.87 17.60L25.24 17.60L25.24 8.61ZM29.30 15.79L29.30 15.79L29.30 10.38L30.76 10.38L30.76 15.41L30.76 15.41Q30.76 15.90 31.06 16.19L31.06 16.19L31.06 16.19Q31.36 16.48 31.76 16.48L31.76 16.48L31.76 16.48Q32.17 16.48 32.58 16.24L32.58 16.24L32.58 16.24Q32.98 16.00 33.18 15.76L33.18 15.76L33.18 10.38L34.64 10.38L34.64 17.60L33.18 17.60L33.18 16.83L33.18 16.83Q32.29 17.72 31.34 17.72L31.34 17.72L31.34 17.72Q30.47 17.72 29.91 17.27L29.91 17.27L29.91 17.27Q29.30 16.78 29.30 15.79ZM37.53 17.60L36.07 17.60L36.07 10.38L37.53 10.38L37.53 11.38L37.53 11.38Q37.56 11.34 37.65 11.20L37.65 11.20L37.82 10.95L37.82 10.95Q38.32 10.26 39.48 10.26L39.48 10.26L39.48 10.26Q39.61 10.26 39.73 10.28L39.73 10.28L39.73 11.50L39.73 11.50Q38.49 11.53 37.94 12.20L37.94 12.20L37.94 12.20Q37.69 12.50 37.53 12.97L37.53 12.97L37.53 17.60ZM42.08 17.60L40.61 17.60L40.61 7.24L42.08 7.24L42.08 13.07L44.15 10.38L45.93 10.38L43.84 13.05L46.05 17.60L44.40 17.60L42.83 14.34L42.08 15.29L42.08 17.60ZM47.78 13.14L47.78 13.14L50.31 13.14L50.31 13.14Q50.31 12.61 50.12 12.22L50.12 12.22L50.12 12.22Q49.77 11.50 49.14 11.50L49.14 11.50L49.14 11.50Q48.76 11.50 48.48 11.67L48.48 11.67L48.48 11.67Q48.19 11.83 48.05 12.10L48.05 12.10L48.05 12.10Q47.78 12.60 47.78 13.14ZM46.63 16.20L46.63 16.20L46.63 16.20Q46.42 15.73 46.33 15.23L46.33 15.23L46.33 15.23Q46.25 14.74 46.25 13.98L46.25 13.98L46.25 13.98Q46.25 13.23 46.42 12.52L46.42 12.52L46.42 12.52Q46.60 11.81 46.88 11.39L46.88 11.39L46.88 11.39Q47.16 10.96 47.56 10.71L47.56 10.71L47.56 10.71Q48.23 10.26 49.15 10.26L49.15 10.26L49.15 10.26Q50.01 10.26 50.65 10.77L50.65 10.77L50.65 10.77Q51.86 11.74 51.80 14.38L51.80 14.38L47.71 14.38L47.71 14.38Q47.71 15.76 48.44 16.24L48.44 16.24L48.44 16.24Q48.82 16.48 49.23 16.48L49.23 16.48L49.23 16.48Q49.64 16.48 49.92 16.38L49.92 16.38L49.92 16.38Q50.19 16.28 50.35 16.15L50.35 16.15L50.35 16.15Q50.52 16.02 50.65 15.85L50.65 15.85L50.65 15.85Q50.84 15.61 50.91 15.44L50.91 15.44L51.84 16.04L51.84 16.04Q51.33 16.92 50.76 17.29L50.76 17.29L50.76 17.29Q50.12 17.72 49.36 17.72L49.36 17.72L49.36 17.72Q48.60 17.72 48.06 17.52L48.06 17.52L48.06 17.52Q47.52 17.32 47.19 16.99L47.19 16.99L47.19 16.99Q46.85 16.67 46.63 16.20ZM54.52 17.16L52.10 10.38L53.73 10.38L55.25 14.71L56.60 10.38L58.23 10.38L55.82 17.81L55.82 17.81Q55.46 18.94 55.22 19.29L55.22 19.29L55.22 19.29Q54.98 19.65 54.79 19.85L54.79 19.85L54.79 19.85Q54.59 20.06 54.37 20.18L54.37 20.18L54.37 20.18Q53.65 20.58 52.25 20.37L52.25 20.37L52.25 20.37Q52.19 20.36 52.19 20.36L52.19 20.36L52.25 19.00L52.25 19.00Q52.51 19.11 52.92 19.11L52.92 19.11L52.92 19.11Q53.33 19.11 53.58 19.00L53.58 19.00L53.58 19.00Q53.83 18.89 53.99 18.72L53.99 18.72L53.99 18.72Q54.14 18.55 54.25 18.34L54.25 18.34L54.25 18.34Q54.36 18.14 54.41 17.92L54.41 17.92L54.41 17.92Q54.52 17.51 54.52 17.16L54.52 17.16ZM59.92 17.60L58.25 17.60L58.25 15.93L59.92 15.93L59.92 17.60ZM66.35 12.19L66.35 12.19L66.35 17.60L64.89 17.60L64.89 12.57L64.89 12.57Q64.89 12.08 64.59 11.79L64.59 11.79L64.59 11.79Q64.29 11.50 63.88 11.50L63.88 11.50L63.88 11.50Q63.47 11.50 63.07 11.74L63.07 11.74L63.07 11.74Q62.67 11.98 62.47 12.22L62.47 12.22L62.47 17.60L61.00 17.60L61.00 10.38L62.47 10.38L62.47 11.15L62.47 11.15Q62.86 10.75 63.30 10.51L63.30 10.51L63.30 10.51Q63.73 10.26 64.31 10.26L64.31 10.26L64.31 10.26Q65.20 10.26 65.78 10.74L65.78 10.74L65.78 10.74Q66.35 11.22 66.35 12.19ZM68.94 13.14L68.94 13.14L71.47 13.14L71.47 13.14Q71.47 12.61 71.29 12.22L71.29 12.22L71.29 12.22Q70.93 11.50 70.30 11.50L70.30 11.50L70.30 11.50Q69.92 11.50 69.64 11.67L69.64 11.67L69.64 11.67Q69.36 11.83 69.21 12.10L69.21 12.10L69.21 12.10Q68.94 12.60 68.94 13.14ZM67.80 16.20L67.80 16.20L67.80 16.20Q67.58 15.73 67.49 15.23L67.49 15.23L67.49 15.23Q67.41 14.74 67.41 13.98L67.41 13.98L67.41 13.98Q67.41 13.23 67.59 12.52L67.59 12.52L67.59 12.52Q67.76 11.81 68.04 11.39L68.04 11.39L68.04 11.39Q68.33 10.96 68.72 10.71L68.72 10.71L68.72 10.71Q69.40 10.26 70.31 10.26L70.31 10.26L70.31 10.26Q71.18 10.26 71.82 10.77L71.82 10.77L71.82 10.77Q73.02 11.74 72.97 14.38L72.97 14.38L68.87 14.38L68.87 14.38Q68.87 15.76 69.60 16.24L69.60 16.24L69.60 16.24Q69.98 16.48 70.39 16.48L70.39 16.48L70.39 16.48Q70.81 16.48 71.08 16.38L71.08 16.38L71.08 16.38Q71.35 16.28 71.52 16.15L71.52 16.15L71.52 16.15Q71.68 16.02 71.82 15.85L71.82 15.85L71.82 15.85Q72.00 15.61 72.07 15.44L72.07 15.44L73.00 16.04L73.00 16.04Q72.50 16.92 71.92 17.29L71.92 17.29L71.92 17.29Q71.29 17.72 70.52 17.72L70.52 17.72L70.52 17.72Q69.76 17.72 69.22 17.52L69.22 17.52L69.22 17.52Q68.69 17.32 68.35 16.99L68.35 16.99L68.35 16.99Q68.01 16.67 67.80 16.20ZM74.53 11.62L73.45 11.62L73.45 10.38L74.53 10.38L74.53 7.75L75.99 7.75L75.99 10.38L77.50 10.38L77.50 11.62L75.99 11.62L75.99 15.49L75.99 15.49Q75.99 16.07 76.20 16.29L76.20 16.29L76.20 16.29Q76.41 16.50 76.90 16.50L76.90 16.50L76.90 16.50Q77.10 16.50 77.30 16.47L77.30 16.47L77.30 16.47Q77.50 16.45 77.50 16.44L77.50 16.44L77.50 17.47L77.50 17.47Q77.13 17.64 76.93 17.69L76.93 17.69L76.93 17.69Q76.73 17.74 76.44 17.74L76.44 17.74L76.44 17.74Q76.15 17.74 76.01 17.73L76.01 17.73L76.01 17.73Q75.87 17.73 75.66 17.68L75.66 17.68L75.66 17.68Q75.46 17.64 75.31 17.57L75.31 17.57L75.31 17.57Q75.17 17.50 75.01 17.36L75.01 17.36L75.01 17.36Q74.85 17.23 74.75 17.04L74.75 17.04L74.75 17.04Q74.53 16.60 74.53 15.90L74.53 15.90L74.53 11.62Z"></path></g><defs data-v-423bf9ae=""><linearGradient data-v-423bf9ae="" gradientTransform="rotate(25)" id="28fa93dd-59e1-4c6d-9822-ac998efa04e4" x1="0%" y1="0%" x2="100%" y2="0%"><stop data-v-423bf9ae="" offset="0%" style="stop-color: rgb(255, 207, 52); stop-opacity: 1;"></stop><stop data-v-423bf9ae="" offset="100%" style="stop-color: rgb(0, 143, 209); stop-opacity: 1;"></stop></linearGradient></defs><g data-v-423bf9ae="" id="db89817b-6b60-467c-90d4-4b6e3049c774" transform="matrix(2.269458792847494,0,0,2.269458792847494,72.85975779544324,1.0000220109611462)" stroke="none" fill="url(#28fa93dd-59e1-4c6d-9822-ac998efa04e4)"><path d="M78 33h10.31a.82.82 0 1 0 0-1.64H61.13a16.32 16.32 0 0 1-7.34-1.75h24a.79.79 0 0 0 .21 0h10.31a.82.82 0 1 0 0-1.64H61.13A13 13 0 0 1 55 26.35h22.28a.79.79 0 0 0 .21 0h10.35a.82.82 0 1 0 0-1.64H61a9.79 9.79 0 1 1 9.79-9.79.82.82 0 1 0 1.64 0 11.44 11.44 0 1 0-17.24 9.84H52.6a13.1 13.1 0 0 1 8.53-23.12.82.82 0 0 0 0-1.64 14.74 14.74 0 0 0-10.88 24.71H48a16.38 16.38 0 0 1 .46-20.29.82.82 0 0 0-1.27-1A18 18 0 0 0 46 24.71h-2.15a19.62 19.62 0 0 1-2.65-9.84.82.82 0 0 0-1.64 0A21.26 21.26 0 0 0 42 24.71H21.41a9.79 9.79 0 1 1 9.79-9.79.82.82 0 0 0 1.64 0 11.44 11.44 0 1 0-11.43 11.43h21.52q.52.81 1.11 1.57h-2.2a.8.8 0 0 0-.45 0H21.57a13.12 13.12 0 0 1 0-26.24.82.82 0 1 0 0-1.64 14.76 14.76 0 0 0 0 29.52h19.67c.46.62.94 1.22 1.46 1.79H21.57A16.44 16.44 0 0 1 8.88 4.45a.82.82 0 0 0-1.27-1A18.09 18.09 0 0 0 21.57 33h22.75a24.78 24.78 0 0 0 2 1.68H21.41A19.79 19.79 0 0 1 1.64 14.91a.82.82 0 0 0-1.64 0 21.43 21.43 0 0 0 21.41 21.41h27.44A24.85 24.85 0 0 0 52.4 38H21.57a23.15 23.15 0 0 1-18.84-9.73.82.82 0 0 0-1.34 1 24.79 24.79 0 0 0 20.18 10.38h56.18a.79.79 0 0 0 .21 0h10.35a.82.82 0 1 0 0-1.64H61.13a23 23 0 0 1-8.51-1.64h25.13a.79.79 0 0 0 .21 0h10.35a.82.82 0 1 0 0-1.64H61A19.64 19.64 0 0 1 53.11 33h24.64a.79.79 0 0 0 .25 0zm-26-6.65a14.79 14.79 0 0 0 2.46 1.57h-3.3a16.56 16.56 0 0 1-1.79-1.57zm-7.11 0h2.26a18.23 18.23 0 0 0 1.48 1.57h-2.47a19.86 19.86 0 0 1-1.25-1.57zm-1.58 3.21h2.12a21.58 21.58 0 0 0 1.89 1.79H45a23.09 23.09 0 0 1-1.68-1.79zm9.55 5.12h-3.6A23.2 23.2 0 0 1 46.84 33h2.79a21.32 21.32 0 0 0 3.24 1.68zm-5.08-5.12h2.83a18.07 18.07 0 0 0 3.11 1.79h-3.63a19.87 19.87 0 0 1-2.3-1.79z" data-name="Layer 2"></path></g><!----></svg>